# xmcd
#
# Track frame offsets: 
#        150
#        14459
#        28430
#        41031
#        55630
#        68830
#        82263
#        93383
#        102829
#        116832
#        130176
#        142209
#        156259
#        169840
#        184622
#        198515
#        211200
#        224267
#        237943
#        250625
#        264485
#        278195
#        291896
#        302864
#        317267
#
# Disc length: 4395 seconds
#
# Revision: 0
# Processed by: cddbd v1.5.2PL0 Copyright (c) Steve Scherf et al.
# Submitted via: ExactAudioCopy v1.2
#
DISCID=78112919
DTITLE=Various Artist - The Rough Guide to Ragtime Blues
DYEAR=2017
DGENRE=Blues
TTITLE0=Blind Willie McTell - Southern Can Is Mine
TTITLE1=Willie Walker - South Carolina Rag (Take 2)
TTITLE2=Blind Boy Fuller - Piccolo Rag
TTITLE3=Luke Jordan - Cocaine Blues
TTITLE4=Robert Wilkins - Old Jim Canan's
TTITLE5=Blind Blake - Blind Arthur's Breakdown
TTITLE6=Papa Charlie Jackson - Drop That Sack
TTITLE7=Bo Carter - Your Biscuits Are Big Enough For Me
TTITLE8=Memphis Minnie and Kansas Joe - Can I Do It For You (Part 1)
TTITLE9=Dick Justice - Old Black Dog
TTITLE10=Beale Street Sheiks - Mr. Crump Don't Like It
TTITLE11=William Moore - Ragtime Millionaire
TTITLE12=Pillie Bolling - Shake Me Like A Dog
TTITLE13=Charlie McCoy - I've Been Blue Ever Since You Went Away
TTITLE14=Allen Brothers - Salty Dog Blues
TTITLE15=Blind Lemon Jefferson - Beggin' Back
TTITLE16=Big Bill Broonzy - Guitar Rag
TTITLE17=The Two Charlies - Pork Chop Blues
TTITLE18=Mississippi John Hurt - Got The Blues Can't Be Satisfied
TTITLE19=Charley Patton - Shake It And Break It (But Don't Let It Fall
TTITLE19=Mama)
TTITLE20=Troy Ferguson - You Better Keep It At Home
TTITLE21=Reverend Gary Davis - Have More Faith In Jesus
TTITLE22=Buddy Boy Hawkins - Raggin' The Blues
TTITLE23=Geeshie Wiley and Elvie Thomas - Pick Poor Robin Clea
TTITLE24=Cannon's Jug Stompers - Money Never Runs Out
EXTD=
EXTT0=
EXTT1=
EXTT2=
EXTT3=
EXTT4=
EXTT5=
EXTT6=
EXTT7=
EXTT8=
EXTT9=
EXTT10=
EXTT11=
EXTT12=
EXTT13=
EXTT14=
EXTT15=
EXTT16=
EXTT17=
EXTT18=
EXTT19=
EXTT20=
EXTT21=
EXTT22=
EXTT23=
EXTT24=
PLAYORDER=
